<?xml version="1.0" encoding="UTF-8" standalone="no"?><!-- Generator: Gravit.io --><svg xmlns="http://www.w3.org/2000/svg" xmlns:xlink="http://www.w3.org/1999/xlink" style="isolation:isolate" viewBox="0 0 1480 535" width="1480pt" height="535pt"><defs><clipPath id="_clipPath_90PhVphg7RGj7AKDtcZVEpXlH5E2yxtJ"><rect width="1480" height="535"/></clipPath></defs><g clip-path="url(#_clipPath_90PhVphg7RGj7AKDtcZVEpXlH5E2yxtJ)"><linearGradient id="_lgradient_0" x1="0.2555969094728262" y1="0.47697328589948995" x2="0.6454338409927736" y2="0.5826042991180455" gradientTransform="matrix(528.896,0,0,528.482,7.654,3.331)" gradientUnits="userSpaceOnUse"><stop offset="0%" stop-opacity="1" style="stop-color:rgb(86,49,204)"/><stop offset="54.701522435897445%" stop-opacity="1" style="stop-color:rgb(68,75,225)"/><stop offset="97.91666666666666%" stop-opacity="1" style="stop-color:rgb(51,100,246)"/></linearGradient><path d=" M 366.137 88.219 L 307.277 27.902 C 294.044 14.341 272.213 13.994 258.556 27.128 L 32.399 244.63 C 18.742 257.764 18.464 279.372 31.779 292.852 L 243.671 507.387 C 256.986 520.868 278.609 520.871 291.928 507.395 L 512.418 284.293 C 525.737 270.817 525.633 249.038 512.187 235.689 L 438.596 162.631 C 425.149 149.282 403.393 149.359 390.041 162.804 L 317.829 235.516 C 304.477 248.961 293.637 275.259 293.637 294.206 L 293.637 338.424 C 293.637 357.372 282.26 362.402 268.246 349.649 L 194.987 282.982 C 180.974 270.229 184.781 257.414 203.485 254.383 L 220.125 251.686 C 238.828 248.654 264.999 235.425 278.53 222.162 L 365.596 136.821 C 379.128 123.558 379.37 101.78 366.137 88.219 Z " fill="url(#_lgradient_0)"/><linearGradient id="_lgradient_1" x1="0" y1="0.5" x2="0.9878538526078474" y2="0.48514357067036723" gradientTransform="matrix(566.286,0,0,219.302,891.742,163.713)" gradientUnits="userSpaceOnUse"><stop offset="0%" stop-opacity="1" style="stop-color:rgb(86,49,204)"/><stop offset="48.333333333333336%" stop-opacity="1" style="stop-color:rgb(88,92,219)"/><stop offset="97.91666666666666%" stop-opacity="1" style="stop-color:rgb(51,101,247)"/></linearGradient><path d=" M 957.856 380.083 L 891.742 380.083 L 891.742 166.645 L 957.416 166.645 L 957.416 166.645 Q 985.562 166.645 1007.77 179.325 L 1007.77 179.325 L 1007.77 179.325 Q 1029.979 192.005 1042.439 215.386 L 1042.439 215.386 L 1042.439 215.386 Q 1054.9 238.768 1054.9 268.526 L 1054.9 268.526 L 1054.9 278.348 L 1054.9 278.348 Q 1054.9 308.106 1042.659 331.268 L 1042.659 331.268 L 1042.659 331.268 Q 1030.419 354.429 1008.137 367.183 L 1008.137 367.183 L 1008.137 367.183 Q 985.855 379.936 957.856 380.083 L 957.856 380.083 Z  M 957.416 202.266 L 935.72 202.266 L 935.72 344.754 L 956.976 344.754 L 956.976 344.754 Q 982.776 344.754 996.409 327.896 L 996.409 327.896 L 996.409 327.896 Q 1010.042 311.038 1010.336 279.667 L 1010.336 279.667 L 1010.336 268.38 L 1010.336 268.38 Q 1010.336 235.836 996.849 219.051 L 996.849 219.051 L 996.849 219.051 Q 983.363 202.266 957.416 202.266 L 957.416 202.266 Z  M 1219.083 380.083 L 1204.277 336.105 L 1127.17 336.105 L 1112.51 380.083 L 1065.747 380.083 L 1145.2 166.645 L 1185.953 166.645 L 1265.846 380.083 L 1219.083 380.083 Z  M 1165.577 220.59 L 1139.044 300.483 L 1192.403 300.483 L 1165.577 220.59 Z  M 1458.028 268.673 L 1458.028 278.201 L 1458.028 278.201 Q 1458.028 309.719 1446.887 333.466 L 1446.887 333.466 L 1446.887 333.466 Q 1435.746 357.214 1415.003 370.115 L 1415.003 370.115 L 1415.003 370.115 Q 1394.261 383.015 1367.434 383.015 L 1367.434 383.015 L 1367.434 383.015 Q 1340.901 383.015 1320.085 370.261 L 1320.085 370.261 L 1320.085 370.261 Q 1299.269 357.508 1287.835 333.833 L 1287.835 333.833 L 1287.835 333.833 Q 1276.4 310.158 1276.254 279.374 L 1276.254 279.374 L 1276.254 268.819 L 1276.254 268.819 Q 1276.254 237.302 1287.615 213.334 L 1287.615 213.334 L 1287.615 213.334 Q 1298.976 189.366 1319.718 176.54 L 1319.718 176.54 L 1319.718 176.54 Q 1340.461 163.713 1367.141 163.713 L 1367.141 163.713 L 1367.141 163.713 Q 1393.821 163.713 1414.564 176.54 L 1414.564 176.54 L 1414.564 176.54 Q 1435.306 189.366 1446.667 213.334 L 1446.667 213.334 L 1446.667 213.334 Q 1458.028 237.302 1458.028 268.673 L 1458.028 268.673 Z  M 1413.464 278.934 L 1413.464 268.526 L 1413.464 268.526 Q 1413.464 234.957 1401.444 217.512 L 1401.444 217.512 L 1401.444 217.512 Q 1389.423 200.068 1367.141 200.068 L 1367.141 200.068 L 1367.141 200.068 Q 1345.006 200.068 1332.985 217.292 L 1332.985 217.292 L 1332.985 217.292 Q 1320.964 234.517 1320.818 267.793 L 1320.818 267.793 L 1320.818 278.201 L 1320.818 278.201 Q 1320.818 310.891 1332.838 328.922 L 1332.838 328.922 L 1332.838 328.922 Q 1344.859 346.953 1367.434 346.953 L 1367.434 346.953 L 1367.434 346.953 Q 1389.57 346.953 1401.444 329.582 L 1401.444 329.582 L 1401.444 329.582 Q 1413.318 312.211 1413.464 278.934 L 1413.464 278.934 Z " fill="url(#_lgradient_1)"/><path d=" M 699.707 246.537 L 624.505 345.927 L 702.052 345.927 L 702.052 380.083 L 570.412 380.083 L 570.412 354.283 L 645.028 255.773 L 572.611 255.773 L 572.611 221.47 L 699.707 221.47 L 699.707 246.537 Z  M 826.949 380.083 L 786.196 316.462 L 770.951 331.707 L 770.951 380.083 L 728.585 380.083 L 728.585 154.917 L 770.951 154.917 L 770.951 279.667 L 779.16 269.113 L 819.766 221.47 L 870.633 221.47 L 813.316 287.583 L 875.617 380.083 L 826.949 380.083 Z " fill="rgb(81,81,81)"/></g></svg>